<svg xmlns="http://www.w3.org/2000/svg" viewBox="0 0 425.2 425.2"><defs><style>.cls-1{fill:#ea5b13;}.cls-2{fill:#fff;}.cls-3{fill:#3065af;}</style></defs><g id="Ebene_1" data-name="Ebene 1"><circle class="cls-1" cx="212.6" cy="212.6" r="212.6"/></g><g id="P-Grund"><path class="cls-2" d="M395,130.18q-22.23-19.68-62.66-19.69H263.06V344.78h29.53V267.29h33.22q42,0,66.71-22.85t24.7-58.71Q417.22,149.87,395,130.18ZM370.2,226.59q-16.08,14-46.67,14H292.59V137.21h34.63q59.05,0,59.06,49.92Q386.28,212.62,370.2,226.59Z" transform="translate(-85.04 -21.44)"/><rect class="cls-2" x="187.23" y="240.58" width="95.12" height="26.91" rx="13.45" transform="translate(384.53 486.64) rotate(180)"/><rect class="cls-2" x="230.09" y="293.97" width="95.12" height="29.89" rx="13.45" transform="translate(501.52 9.83) rotate(90)"/></g><g id="Kreuz"><rect class="cls-3" x="273.98" y="241.93" width="67.73" height="24.29" rx="12.14" transform="translate(530.64 486.71) rotate(180)"/><rect class="cls-3" x="244.05" y="211.07" width="67.73" height="26.83" rx="12.14" transform="translate(417.37 -74.86) rotate(90)"/><rect class="cls-3" x="243.94" y="270.8" width="67.73" height="27.06" rx="12.14" transform="translate(477.09 -14.92) rotate(90)"/><rect class="cls-3" x="219.58" y="241.93" width="67.73" height="24.29" rx="12.14" transform="translate(421.85 486.71) rotate(-180)"/></g></svg>